<?xml version="1.0" ?><!DOCTYPE svg  PUBLIC '-//W3C//DTD SVG 1.1//EN'  'http://www.w3.org/Graphics/SVG/1.1/DTD/svg11.dtd'><svg enable-background="new 0 0 100 100" height="100px" id="Layer_1" version="1.1" viewBox="0 0 100 100" width="100px" xml:space="preserve" xmlns="http://www.w3.org/2000/svg" xmlns:xlink="http://www.w3.org/1999/xlink"><g><g><g><linearGradient gradientTransform="matrix(-1 0 0 1 2267.9531 0.0488)" gradientUnits="userSpaceOnUse" id="SVGID_1_" x1="2242.3867" x2="2242.3867" y1="75.541" y2="80.69"><stop offset="0.0393" style="stop-color:#805B36"/><stop offset="0.5337" style="stop-color:#EAC579"/><stop offset="0.6115" style="stop-color:#E5C076"/><stop offset="0.6994" style="stop-color:#D8B36D"/><stop offset="0.7923" style="stop-color:#C19D5F"/><stop offset="0.8886" style="stop-color:#A17E4B"/><stop offset="0.9866" style="stop-color:#795631"/><stop offset="1" style="stop-color:#73502D"/></linearGradient><path d="M15.277,79.73l21.473,1.348l0.454-5.584l-21.996,1.262C15.208,76.756,12.285,78.303,15.277,79.73z     " fill="url(#SVGID_1_)"/><linearGradient gradientUnits="userSpaceOnUse" id="SVGID_2_" x1="61.1162" x2="61.2354" y1="76.1299" y2="80.658"><stop offset="0.0113" style="stop-color:#BEB1A2"/><stop offset="0.0279" style="stop-color:#C0B3A4"/><stop offset="0.403" style="stop-color:#E3DED0"/><stop offset="0.5932" style="stop-color:#F0EFE1"/><stop offset="0.9944" style="stop-color:#C2B69B"/></linearGradient><polygon fill="url(#SVGID_2_)" points="82.049,80.451 82.049,79.586 78.045,79.545 81.32,78.879 81.32,77.896 80.152,77.656      82.336,77.645 82.336,76.805 40.02,76.307 40.02,80.123    "/><polygon fill="#9A9C9F" points="40.02,76.961 79.008,77.902 40.02,77.238    "/><path d="M78.045,79.545c0,0-19.473-0.203-35.426-0.035C42.619,79.51,72.57,79.871,78.045,79.545z" fill="#9A9C9F"/><path d="M28.792,75.98l1.568-0.088c-1.301,0.779-2.009,1.609-2.009,2.475c0,0.795,0.601,1.563,1.71,2.293     l-1.567-0.102c-1.018-0.695-1.567-1.432-1.567-2.195C26.926,77.535,27.587,76.734,28.792,75.98z" fill="#704F2D"/><path d="M24.815,76.213l1.393-0.08c-1.056,0.705-1.637,1.453-1.637,2.23c0,0.703,0.479,1.389,1.354,2.035     l-1.39-0.086c-0.802-0.621-1.239-1.275-1.239-1.951C23.296,77.615,23.834,76.893,24.815,76.213z" fill="#704F2D"/><path d="M15.723,76.738l1.026-0.059c-0.592,0.531-0.917,1.094-0.917,1.674c0,0.5,0.241,0.988,0.688,1.453     l-1.022-0.063c-0.408-0.445-0.629-0.912-0.629-1.391C14.868,77.793,15.172,77.254,15.723,76.738z" fill="#704F2D"/><path d="M17.813,76.619l1.106-0.064c-0.688,0.57-1.062,1.176-1.062,1.801c0,0.549,0.289,1.08,0.822,1.59     l-1.102-0.068c-0.486-0.488-0.75-0.996-0.75-1.521C16.827,77.752,17.176,77.17,17.813,76.619z" fill="#704F2D"/><g><linearGradient gradientTransform="matrix(-1 0 0 1 2384.4648 -79.21)" gradientUnits="userSpaceOnUse" id="SVGID_3_" x1="2297.3867" x2="2350.2146" y1="157.1973" y2="158.2608"><stop offset="0.0056" style="stop-color:#E9C278"/><stop offset="0.0297" style="stop-color:#E4BD75"/><stop offset="0.2398" style="stop-color:#BC965B"/><stop offset="0.4461" style="stop-color:#9C7847"/><stop offset="0.645" style="stop-color:#856239"/><stop offset="0.8334" style="stop-color:#785430"/><stop offset="1" style="stop-color:#73502D"/></linearGradient><path d="M86.582,76.855v-1.318l-49.378-0.043c0,0-3.47,3.029-0.454,5.584l47.32,0.469v-1.078      L40.02,80.123v-3.816L86.582,76.855z" fill="url(#SVGID_3_)"/></g><g><path d="M40.02,76.307c0,0,3.556,1.906,0,3.816C37.21,79.178,40.02,76.307,40.02,76.307z" fill="#7A7C7F"/></g></g><g><linearGradient gradientTransform="matrix(1 0 0 1 8.9961 0.0488)" gradientUnits="userSpaceOnUse" id="SVGID_4_" x1="64.2813" x2="64.2813" y1="80.2236" y2="85.3727"><stop offset="0.0393" style="stop-color:#805B36"/><stop offset="0.5337" style="stop-color:#EAC579"/><stop offset="0.6115" style="stop-color:#E5C076"/><stop offset="0.6994" style="stop-color:#D8B36D"/><stop offset="0.7923" style="stop-color:#C19D5F"/><stop offset="0.8886" style="stop-color:#A17E4B"/><stop offset="0.9866" style="stop-color:#795631"/><stop offset="1" style="stop-color:#73502D"/></linearGradient><path d="M83.564,84.412L62.09,85.76l-0.449-5.584l21.994,1.26C83.635,81.436,86.557,82.986,83.564,84.412z     " fill="url(#SVGID_4_)"/><linearGradient gradientTransform="matrix(-1 0 0 1 2276.9492 0)" gradientUnits="userSpaceOnUse" id="SVGID_5_" x1="2239.2246" x2="2239.3438" y1="80.8115" y2="85.3405"><stop offset="0.0113" style="stop-color:#BEB1A2"/><stop offset="0.0279" style="stop-color:#C0B3A4"/><stop offset="0.403" style="stop-color:#E3DED0"/><stop offset="0.5932" style="stop-color:#F0EFE1"/><stop offset="0.9944" style="stop-color:#C2B69B"/></linearGradient><polygon fill="url(#SVGID_5_)" points="16.792,85.135 16.792,84.268 20.797,84.227 17.521,83.561 17.521,82.578 18.688,82.338      16.504,82.326 16.504,81.486 58.82,80.988 58.82,84.807    "/><polygon fill="#9A9C9F" points="58.82,81.643 19.834,82.584 58.82,81.92    "/><path d="M20.797,84.227c0,0,19.474-0.205,35.425-0.035C56.223,84.191,26.271,84.551,20.797,84.227z" fill="#9A9C9F"/><path d="M70.051,80.664l-1.57-0.092c1.301,0.781,2.01,1.613,2.01,2.477c0,0.793-0.602,1.563-1.711,2.291     l1.568-0.1c1.018-0.695,1.566-1.434,1.566-2.193C71.914,82.219,71.254,81.418,70.051,80.664z" fill="#704F2D"/><path d="M74.023,80.895l-1.391-0.08c1.057,0.703,1.637,1.455,1.637,2.23c0,0.705-0.48,1.387-1.354,2.033     l1.389-0.086c0.805-0.619,1.242-1.275,1.242-1.947C75.547,82.295,75.004,81.574,74.023,80.895z" fill="#704F2D"/><path d="M83.117,81.422l-1.025-0.059c0.592,0.531,0.918,1.094,0.918,1.672c0,0.5-0.242,0.988-0.686,1.455     l1.02-0.064c0.41-0.445,0.629-0.912,0.629-1.393C83.973,82.473,83.67,81.934,83.117,81.422z" fill="#704F2D"/><path d="M81.025,81.299l-1.104-0.063c0.688,0.57,1.063,1.176,1.063,1.801c0,0.549-0.291,1.08-0.822,1.588     l1.1-0.066c0.488-0.488,0.754-0.996,0.754-1.523C82.016,82.434,81.666,81.85,81.025,81.299z" fill="#704F2D"/><g><linearGradient gradientTransform="matrix(1 0 0 1 125.6602 -79.21)" gradientUnits="userSpaceOnUse" id="SVGID_6_" x1="-113.8945" x2="-61.0681" y1="161.8779" y2="162.9414"><stop offset="0.0056" style="stop-color:#E9C278"/><stop offset="0.0297" style="stop-color:#E4BD75"/><stop offset="0.2398" style="stop-color:#BC965B"/><stop offset="0.4461" style="stop-color:#9C7847"/><stop offset="0.645" style="stop-color:#856239"/><stop offset="0.8334" style="stop-color:#785430"/><stop offset="1" style="stop-color:#73502D"/></linearGradient><path d="M61.641,80.176l-49.382,0.043v1.314l46.562-0.545v3.818L14.77,85.152v1.074l47.32-0.467      C65.105,83.205,61.641,80.176,61.641,80.176z" fill="url(#SVGID_6_)"/></g><g><path d="M58.82,80.988c0,0-3.555,1.906,0,3.818C61.631,83.857,58.82,80.988,58.82,80.988z" fill="#7A7C7F"/></g></g><g><linearGradient gradientUnits="userSpaceOnUse" id="SVGID_7_" x1="66.7793" x2="66.7793" y1="64.21" y2="76.5214"><stop offset="0.0393" style="stop-color:#805B36"/><stop offset="0.309" style="stop-color:#E7A971"/><stop offset="0.4259" style="stop-color:#E2A56E"/><stop offset="0.558" style="stop-color:#D59B66"/><stop offset="0.6976" style="stop-color:#BE8A59"/><stop offset="0.8423" style="stop-color:#9E7146"/><stop offset="0.9896" style="stop-color:#76522F"/><stop offset="1" style="stop-color:#73502D"/></linearGradient><path d="M84.221,75.4l-37.756,1.93l-0.573-13.352l38.495,1.578C84.387,65.557,91.875,70.688,84.221,75.4z" fill="url(#SVGID_7_)"/><linearGradient gradientUnits="userSpaceOnUse" id="SVGID_8_" x1="25.4546" x2="26.9833" y1="65.6377" y2="74.81"><stop offset="0.0113" style="stop-color:#BEB1A2"/><stop offset="0.0279" style="stop-color:#C0B3A4"/><stop offset="0.403" style="stop-color:#E3DED0"/><stop offset="0.5932" style="stop-color:#F0EFE1"/><stop offset="0.9944" style="stop-color:#C2B69B"/></linearGradient><polygon fill="url(#SVGID_8_)" points="9.901,73.932 9.901,72.617 12.016,72.617 10.275,71.547 10.275,70.047 10.885,69.672      9.754,69.672 9.754,68.398 42.463,66.084 42.463,74.867    "/><polygon fill="#9A9C9F" points="42.463,67.584 11.495,70.047 42.463,68.227    "/><path d="M12.016,72.617c0,0,12.702-0.002,27.491,0.75C39.506,73.367,15.147,73.242,12.016,72.617z" fill="#9A9C9F"/><path d="M57.766,64.482l-2.426-0.102c2.002,1.961,3.127,4.154,3.127,6.469c0,2.135-0.957,4.16-2.672,6.004     l2.443-0.125c1.645-1.807,2.553-3.795,2.553-5.879C60.791,68.576,59.701,66.418,57.766,64.482z" fill="#704F2D"/><path d="M64.426,64.764l-2.42-0.1c1.826,1.891,2.857,3.979,2.857,6.186c0,2-0.852,3.912-2.375,5.662l2.436-0.125     c1.457-1.715,2.268-3.582,2.268-5.537C67.191,68.684,66.193,66.629,64.426,64.764z" fill="#704F2D"/><path d="M83.146,65.557l-2.406-0.1c1.383,1.676,2.15,3.492,2.15,5.393c0,1.643-0.572,3.221-1.615,4.701     l2.414-0.121c0.988-1.445,1.527-2.982,1.527-4.58C85.217,68.986,84.475,67.207,83.146,65.557z" fill="#704F2D"/><path d="M78.332,65.354l-2.41-0.102c1.488,1.734,2.316,3.621,2.316,5.598c0,1.734-0.643,3.396-1.801,4.949     l2.422-0.123c1.1-1.518,1.705-3.139,1.705-4.826C80.564,68.91,79.766,67.059,78.332,65.354z" fill="#704F2D"/><g><linearGradient gradientTransform="matrix(1 0 0 1 116.5879 -79.21)" gradientUnits="userSpaceOnUse" id="SVGID_9_" x1="-109.3398" x2="-67.4562" y1="149.0801" y2="149.9233"><stop offset="0.0056" style="stop-color:#E7A971"/><stop offset="0.0206" style="stop-color:#E4A76F"/><stop offset="0.2326" style="stop-color:#BC8858"/><stop offset="0.4408" style="stop-color:#9C6F45"/><stop offset="0.6416" style="stop-color:#855E38"/><stop offset="0.8318" style="stop-color:#785430"/><stop offset="1" style="stop-color:#73502D"/></linearGradient><path d="M45.892,63.979L7.667,66.619v1.928l34.796-2.463v8.783L8.885,73.902v1.607l37.58,1.82      C50.466,71.225,45.892,63.979,45.892,63.979z" fill="url(#SVGID_9_)"/></g><g><path d="M42.463,66.084c0,0-4.001,4.391,0,8.783C45.883,72.762,42.463,66.084,42.463,66.084z" fill="#7A7C7F"/></g></g><g><linearGradient gradientUnits="userSpaceOnUse" id="SVGID_10_" x1="49.9385" x2="49.9385" y1="84.9238" y2="89.4576"><stop offset="0.0113" style="stop-color:#BEB1A2"/><stop offset="0.0279" style="stop-color:#C0B3A4"/><stop offset="0.403" style="stop-color:#E3DED0"/><stop offset="0.5932" style="stop-color:#F0EFE1"/><stop offset="0.9944" style="stop-color:#C2B69B"/></linearGradient><path d="M13.554,85.438c-0.028-0.439,0.597-0.795,1.391-0.795h8.844c0.794,0,1.992,0,2.663,0     c0.67,0,1.868,0,2.662,0h55.768c0.791,0,1.443,0.355,1.443,0.795v3.705c0,0.439-0.652,0.791-1.443,0.783L30.79,90.084     c-0.794-0.008-2.092-0.02-2.886-0.029L15.25,89.939c-0.795-0.008-1.468-0.373-1.494-0.809L13.554,85.438z" fill="url(#SVGID_10_)"/><linearGradient gradientUnits="userSpaceOnUse" id="SVGID_11_" x1="76.6396" x2="76.6396" y1="84.916" y2="89.3359"><stop offset="0.0113" style="stop-color:#BEB1A2"/><stop offset="0.0188" style="stop-color:#BDB0A1"/><stop offset="0.3419" style="stop-color:#91887B"/><stop offset="0.5056" style="stop-color:#80796C"/><stop offset="0.9944" style="stop-color:#C2B69B"/></linearGradient><rect fill="url(#SVGID_11_)" height="5.305" width="1.947" x="75.666" y="84.643"/><linearGradient gradientUnits="userSpaceOnUse" id="SVGID_12_" x1="70.2422" x2="70.2422" y1="84.916" y2="89.3359"><stop offset="0.0113" style="stop-color:#BEB1A2"/><stop offset="0.0188" style="stop-color:#BDB0A1"/><stop offset="0.3419" style="stop-color:#91887B"/><stop offset="0.5056" style="stop-color:#80796C"/><stop offset="0.9944" style="stop-color:#C2B69B"/></linearGradient><rect fill="url(#SVGID_12_)" height="5.305" width="1.949" x="69.268" y="84.643"/><linearGradient gradientUnits="userSpaceOnUse" id="SVGID_13_" x1="28.9551" x2="28.9551" y1="84.916" y2="89.3359"><stop offset="0.0113" style="stop-color:#BEB1A2"/><stop offset="0.0188" style="stop-color:#BDB0A1"/><stop offset="0.3419" style="stop-color:#91887B"/><stop offset="0.5056" style="stop-color:#80796C"/><stop offset="0.9944" style="stop-color:#C2B69B"/></linearGradient><rect fill="url(#SVGID_13_)" height="5.305" width="1.95" x="27.98" y="84.643"/><linearGradient gradientUnits="userSpaceOnUse" id="SVGID_14_" x1="22.5591" x2="22.5591" y1="84.916" y2="89.3359"><stop offset="0.0113" style="stop-color:#BEB1A2"/><stop offset="0.0188" style="stop-color:#BDB0A1"/><stop offset="0.3419" style="stop-color:#91887B"/><stop offset="0.5056" style="stop-color:#80796C"/><stop offset="0.9944" style="stop-color:#C2B69B"/></linearGradient><rect fill="url(#SVGID_14_)" height="5.305" width="1.951" x="21.583" y="84.643"/></g></g><g><radialGradient cx="47.9727" cy="31.8047" fx="47.7583" fy="44.4628" gradientTransform="matrix(0.9951 0 0 1.0013 0.25 -0.0654)" gradientUnits="userSpaceOnUse" id="SVGID_15_" r="14.4652"><stop offset="0.0056" style="stop-color:#E7A971"/><stop offset="0.1983" style="stop-color:#E4A66F"/><stop offset="0.3664" style="stop-color:#D99E69"/><stop offset="0.5251" style="stop-color:#C7905E"/><stop offset="0.6783" style="stop-color:#AE7D4F"/><stop offset="0.826" style="stop-color:#8E643D"/><stop offset="0.927" style="stop-color:#73502D"/><stop offset="1" style="stop-color:#73502D"/></radialGradient><ellipse cx="47.988" cy="31.781" fill="url(#SVGID_15_)" rx="14.264" ry="14.614"/><radialGradient cx="-1513.5518" cy="448.1797" fx="-1513.861" fy="466.4385" gradientTransform="matrix(-0.9951 0 0 -0.7598 -1459.0493 390.0972)" gradientUnits="userSpaceOnUse" id="SVGID_16_" r="20.8654"><stop offset="0.2416" style="stop-color:#73502D"/><stop offset="0.5414" style="stop-color:#A6774B"/><stop offset="0.8469" style="stop-color:#D59B66"/><stop offset="1" style="stop-color:#E7A971"/></radialGradient><path d="M22.751,45.356c0-8.157,10.385-8.307,24.576-8.307c14.193,0,24.117-0.592,24.117,7.563    c0,8.157-10.348,17.495-24.537,17.495C32.715,62.107,22.751,53.514,22.751,45.356z" fill="url(#SVGID_16_)"/><radialGradient cx="-1513.0371" cy="410.9287" fx="-1514.1965" fy="402.3678" gradientTransform="matrix(-0.9951 0 0 -0.678 -1459.0493 339.1392)" gradientUnits="userSpaceOnUse" id="SVGID_17_" r="27.4518"><stop offset="0.0056" style="stop-color:#E7A971"/><stop offset="0.0206" style="stop-color:#E4A76F"/><stop offset="0.2326" style="stop-color:#BC8858"/><stop offset="0.4408" style="stop-color:#9C6F45"/><stop offset="0.6416" style="stop-color:#855E38"/><stop offset="0.8318" style="stop-color:#785430"/><stop offset="1" style="stop-color:#73502D"/></radialGradient><path d="M25.886,46.171c-6.837-8.944,9.85-15.899,21.528-15.899c11.679,0,29.703,7.672,21.142,15.899    c-9.77,9.391-9.463,18.26-21.142,18.26C35.736,64.432,33.591,56.254,25.886,46.171z" fill="url(#SVGID_17_)"/><radialGradient cx="46.9043" cy="38.2822" fx="42.3837" fy="38.3297" gradientTransform="matrix(0.9951 0 0 1.0013 0.25 -0.0654)" gradientUnits="userSpaceOnUse" id="SVGID_18_" r="7.3797"><stop offset="0.0056" style="stop-color:#FFD200"/><stop offset="0.2825" style="stop-color:#FDCE03"/><stop offset="0.5631" style="stop-color:#F5C20C"/><stop offset="0.8445" style="stop-color:#EAAE1A"/><stop offset="1" style="stop-color:#E19F25"/></radialGradient><path d="M52.932,39.595c0,0-5.406,1.919-7.155,7.197c0,0-6.833-1.119-4.292-12.954    C44.029,22.001,52.932,39.595,52.932,39.595z" fill="url(#SVGID_18_)"/><ellipse cx="36.751" cy="30.229" fill="#C8CCD4" rx="10.745" ry="10.813"/><ellipse cx="58.368" cy="30.987" fill="#C8CCD4" rx="10.747" ry="10.812"/><ellipse cx="38.267" cy="30.495" fill="#F1F1F2" rx="7.774" ry="7.824"/><ellipse cx="56.853" cy="30.722" fill="#F1F1F2" rx="7.776" ry="7.823"/><ellipse cx="38.815" cy="30.663" fill="#231F20" rx="3.654" ry="3.676"/><path d="M59.705,30.78c0,2.03-1.635,3.677-3.656,3.677c-2.018,0-3.652-1.647-3.652-3.677    c0-2.031,1.635-3.677,3.652-3.677C58.07,27.104,59.705,28.75,59.705,30.78z" fill="#231F20"/><g><g><radialGradient cx="35.0293" cy="64.5088" gradientTransform="matrix(0.9951 0 0 1.0013 0.25 -0.0654)" gradientUnits="userSpaceOnUse" id="SVGID_19_" r="2.085"><stop offset="0.0056" style="stop-color:#876541"/><stop offset="1" style="stop-color:#73502D"/></radialGradient><path d="M33.906,66.625c0,0,1.003-1.469,2.58-1.469c1.575,0,0.287-2.725-1.074-2.725      C34.05,62.432,31.755,63.404,33.906,66.625z" fill="url(#SVGID_19_)"/><radialGradient cx="35.0386" cy="64.126" gradientTransform="matrix(0.9951 0 0 1.0013 0.25 -0.0654)" gradientUnits="userSpaceOnUse" id="SVGID_20_" r="2.0937"><stop offset="0.0056" style="stop-color:#AD8056"/><stop offset="1" style="stop-color:#A97649"/></radialGradient><path d="M35.411,62.594c-0.622,0-1.425,0.25-1.715,0.797c-0.087,0.166-0.131,0.352-0.131,0.563      c0,0.387,0.146,0.848,0.426,1.375c0.512-0.492,1.37-1.102,2.494-1.102c0.106,0,0.158-0.021,0.167-0.031      c0.008-0.014,0.017-0.049,0.017-0.104c0-0.117-0.036-0.316-0.172-0.582C36.227,62.988,35.761,62.594,35.411,62.594z" fill="url(#SVGID_20_)"/><radialGradient cx="35.0386" cy="63.7412" gradientTransform="matrix(0.9951 0 0 1.0013 0.25 -0.0654)" gradientUnits="userSpaceOnUse" id="SVGID_21_" r="2.0926"><stop offset="0.0056" style="stop-color:#E7A971"/><stop offset="0.3844" style="stop-color:#EBBB87"/><stop offset="1" style="stop-color:#F2D5A8"/></radialGradient><path d="M34.174,63.262c-0.043,0.084-0.065,0.186-0.065,0.307c0,0.111,0.025,0.279,0.094,0.496      c0.473-0.336,1.073-0.635,1.783-0.734c-0.211-0.379-0.497-0.568-0.58-0.576C34.935,62.754,34.343,62.943,34.174,63.262z" fill="url(#SVGID_21_)"/><radialGradient cx="37.4941" cy="64.6572" gradientTransform="matrix(0.9951 0 0 1.0013 0.25 -0.0654)" gradientUnits="userSpaceOnUse" id="SVGID_22_" r="2.2198"><stop offset="0.0056" style="stop-color:#876541"/><stop offset="1" style="stop-color:#73502D"/></radialGradient><path d="M36.268,66.887c0,0,1.079-1.551,2.773-1.551c1.696,0,0.308-2.869-1.156-2.869      S33.956,63.492,36.268,66.887z" fill="url(#SVGID_22_)"/><radialGradient cx="37.5034" cy="64.2715" gradientTransform="matrix(0.9951 0 0 1.0013 0.25 -0.0654)" gradientUnits="userSpaceOnUse" id="SVGID_23_" r="2.2273"><stop offset="0.0056" style="stop-color:#AD8056"/><stop offset="1" style="stop-color:#A97649"/></radialGradient><path d="M35.997,63.5c-0.091,0.174-0.134,0.369-0.134,0.588c0,0.424,0.163,0.932,0.482,1.508      c0.54-0.518,1.471-1.189,2.697-1.189c0.236,0,0.236-0.047,0.236-0.176l0,0c0-0.619-0.76-1.604-1.392-1.604      C37.195,62.627,36.31,62.9,35.997,63.5z" fill="url(#SVGID_23_)"/><radialGradient cx="37.5039" cy="63.8896" gradientTransform="matrix(0.9951 0 0 1.0013 0.25 -0.0654)" gradientUnits="userSpaceOnUse" id="SVGID_24_" r="2.2276"><stop offset="0.0056" style="stop-color:#E7A971"/><stop offset="0.3844" style="stop-color:#EBBB87"/><stop offset="1" style="stop-color:#F2D5A8"/></radialGradient><path d="M36.475,63.369c-0.048,0.09-0.07,0.203-0.07,0.336c0,0.18,0.048,0.393,0.134,0.635      c0.541-0.398,1.246-0.746,2.091-0.838c-0.181-0.348-0.549-0.713-0.745-0.713C37.343,62.789,36.665,63.006,36.475,63.369z" fill="url(#SVGID_24_)"/><radialGradient cx="40.6021" cy="65.1885" gradientTransform="matrix(0.9951 0 0 1.0013 0.25 -0.0654)" gradientUnits="userSpaceOnUse" id="SVGID_25_" r="2.7537"><stop offset="0.0056" style="stop-color:#876541"/><stop offset="1" style="stop-color:#73502D"/></radialGradient><path d="M39.049,67.951c0,0,1.338-1.924,3.441-1.924c2.103,0,0.382-3.561-1.434-3.561      C39.239,62.467,36.181,63.738,39.049,67.951z" fill="url(#SVGID_25_)"/><radialGradient cx="40.6143" cy="64.8037" gradientTransform="matrix(0.9951 0 0 1.0013 0.25 -0.0654)" gradientUnits="userSpaceOnUse" id="SVGID_26_" r="2.7636"><stop offset="0.0056" style="stop-color:#AD8056"/><stop offset="1" style="stop-color:#A97649"/></radialGradient><path d="M41.056,62.627c-0.924,0-2.042,0.357-2.459,1.154c-0.121,0.229-0.181,0.492-0.181,0.787      c0,0.58,0.244,1.287,0.704,2.084c0.627-0.643,1.799-1.557,3.37-1.557c0.14,0,0.321-0.02,0.38-0.125      c0.031-0.053,0.045-0.129,0.045-0.225c0-0.225-0.089-0.555-0.302-0.926C42.209,63.117,41.57,62.627,41.056,62.627z" fill="url(#SVGID_26_)"/><radialGradient cx="40.4224" cy="64.4199" gradientTransform="matrix(0.9951 0 0 1.0013 0.25 -0.0654)" gradientUnits="userSpaceOnUse" id="SVGID_27_" r="2.7623"><stop offset="0.0056" style="stop-color:#E7A971"/><stop offset="0.3844" style="stop-color:#EBBB87"/><stop offset="1" style="stop-color:#F2D5A8"/></radialGradient><path d="M40.865,62.789L40.865,62.789c-0.736,0-1.669,0.27-1.981,0.861      c-0.078,0.148-0.118,0.328-0.118,0.535c0,0.33,0.114,0.742,0.323,1.203c0.695-0.566,1.744-1.164,3.056-1.211      c-0.032-0.133-0.084-0.283-0.191-0.469C41.627,63.141,41.134,62.789,40.865,62.789z" fill="url(#SVGID_27_)"/></g><g><radialGradient cx="-5068.7402" cy="64.5088" gradientTransform="matrix(-0.9951 0 0 1.0013 -4985.6782 -0.0654)" gradientUnits="userSpaceOnUse" id="SVGID_28_" r="2.0846"><stop offset="0.0056" style="stop-color:#876541"/><stop offset="1" style="stop-color:#73502D"/></radialGradient><path d="M59.465,66.625c0,0-1.004-1.469-2.58-1.469s-0.287-2.725,1.076-2.725      C59.32,62.432,61.613,63.404,59.465,66.625z" fill="url(#SVGID_28_)"/><radialGradient cx="-5068.729" cy="64.126" gradientTransform="matrix(-0.9951 0 0 1.0013 -4985.6782 -0.0654)" gradientUnits="userSpaceOnUse" id="SVGID_29_" r="2.0915"><stop offset="0.0056" style="stop-color:#AD8056"/><stop offset="1" style="stop-color:#A97649"/></radialGradient><path d="M57.961,62.594c0.621,0,1.424,0.25,1.715,0.797c0.082,0.166,0.125,0.352,0.125,0.563      c0,0.387-0.141,0.848-0.422,1.375c-0.512-0.492-1.371-1.102-2.494-1.102c-0.107,0-0.158-0.021-0.166-0.031      c-0.01-0.014-0.018-0.049-0.018-0.104c0-0.117,0.033-0.316,0.174-0.582C57.143,62.988,57.609,62.594,57.961,62.594z" fill="url(#SVGID_29_)"/><radialGradient cx="-5068.7305" cy="63.7412" gradientTransform="matrix(-0.9951 0 0 1.0013 -4985.6782 -0.0654)" gradientUnits="userSpaceOnUse" id="SVGID_30_" r="2.0942"><stop offset="0.0056" style="stop-color:#E7A971"/><stop offset="0.3844" style="stop-color:#EBBB87"/><stop offset="1" style="stop-color:#F2D5A8"/></radialGradient><path d="M59.195,63.262c0.045,0.084,0.066,0.186,0.066,0.307c0,0.111-0.027,0.279-0.096,0.496      c-0.473-0.336-1.07-0.635-1.783-0.734c0.211-0.379,0.498-0.568,0.58-0.576C58.436,62.754,59.027,62.943,59.195,63.262z" fill="url(#SVGID_30_)"/><radialGradient cx="-5066.2754" cy="64.6572" gradientTransform="matrix(-0.9951 0 0 1.0013 -4985.6782 -0.0654)" gradientUnits="userSpaceOnUse" id="SVGID_31_" r="2.2198"><stop offset="0.0056" style="stop-color:#876541"/><stop offset="1" style="stop-color:#73502D"/></radialGradient><path d="M57.102,66.887c0,0-1.078-1.551-2.773-1.551s-0.309-2.869,1.158-2.869      C56.947,62.467,59.416,63.492,57.102,66.887z" fill="url(#SVGID_31_)"/><radialGradient cx="-5066.2661" cy="64.2715" gradientTransform="matrix(-0.9951 0 0 1.0013 -4985.6782 -0.0654)" gradientUnits="userSpaceOnUse" id="SVGID_32_" r="2.2277"><stop offset="0.0056" style="stop-color:#AD8056"/><stop offset="1" style="stop-color:#A97649"/></radialGradient><path d="M57.373,63.5c0.09,0.174,0.135,0.369,0.135,0.588c0,0.424-0.162,0.932-0.482,1.508      c-0.539-0.518-1.471-1.189-2.697-1.189c-0.236,0-0.236-0.047-0.236-0.176l0,0c0-0.619,0.762-1.604,1.395-1.604      C56.172,62.627,57.061,62.9,57.373,63.5z" fill="url(#SVGID_32_)"/><radialGradient cx="-5066.2656" cy="63.8896" gradientTransform="matrix(-0.9951 0 0 1.0013 -4985.6782 -0.0654)" gradientUnits="userSpaceOnUse" id="SVGID_33_" r="2.2263"><stop offset="0.0056" style="stop-color:#E7A971"/><stop offset="0.3844" style="stop-color:#EBBB87"/><stop offset="1" style="stop-color:#F2D5A8"/></radialGradient><path d="M56.893,63.369c0.049,0.09,0.072,0.203,0.072,0.336c0,0.18-0.049,0.393-0.133,0.635      c-0.541-0.398-1.248-0.746-2.092-0.838c0.18-0.348,0.551-0.713,0.746-0.713C56.029,62.789,56.703,63.006,56.893,63.369z" fill="url(#SVGID_33_)"/><radialGradient cx="-5063.1689" cy="65.1885" gradientTransform="matrix(-0.9951 0 0 1.0013 -4985.6782 -0.0654)" gradientUnits="userSpaceOnUse" id="SVGID_34_" r="2.7543"><stop offset="0.0056" style="stop-color:#876541"/><stop offset="1" style="stop-color:#73502D"/></radialGradient><path d="M54.322,67.951c0,0-1.338-1.924-3.443-1.924c-2.103,0-0.382-3.561,1.435-3.561      C54.131,62.467,57.191,63.738,54.322,67.951z" fill="url(#SVGID_34_)"/><radialGradient cx="-5063.1538" cy="64.8037" gradientTransform="matrix(-0.9951 0 0 1.0013 -4985.6782 -0.0654)" gradientUnits="userSpaceOnUse" id="SVGID_35_" r="2.7643"><stop offset="0.0056" style="stop-color:#AD8056"/><stop offset="1" style="stop-color:#A97649"/></radialGradient><path d="M52.314,62.627c0.922,0,2.043,0.357,2.459,1.154c0.121,0.229,0.18,0.492,0.18,0.787      c0,0.58-0.242,1.287-0.703,2.084c-0.629-0.643-1.799-1.557-3.371-1.557c-0.139,0-0.321-0.02-0.38-0.125      c-0.029-0.053-0.047-0.129-0.047-0.225c0-0.225,0.093-0.555,0.303-0.926C51.158,63.117,51.799,62.627,52.314,62.627z" fill="url(#SVGID_35_)"/><radialGradient cx="-5063.3462" cy="64.4199" gradientTransform="matrix(-0.9951 0 0 1.0013 -4985.6782 -0.0654)" gradientUnits="userSpaceOnUse" id="SVGID_36_" r="2.7632"><stop offset="0.0056" style="stop-color:#E7A971"/><stop offset="0.3844" style="stop-color:#EBBB87"/><stop offset="1" style="stop-color:#F2D5A8"/></radialGradient><path d="M52.506,62.789L52.506,62.789c0.736,0,1.67,0.27,1.98,0.861      c0.076,0.148,0.117,0.328,0.117,0.535c0,0.33-0.113,0.742-0.324,1.203c-0.695-0.566-1.742-1.164-3.055-1.211      c0.033-0.133,0.086-0.283,0.191-0.469C51.744,63.141,52.234,62.789,52.506,62.789z" fill="url(#SVGID_36_)"/></g></g><g><radialGradient cx="39.2881" cy="20.8999" gradientTransform="matrix(0.9951 0 0 1.0013 0.25 -0.0654)" gradientUnits="userSpaceOnUse" id="SVGID_37_" r="10.1798"><stop offset="0.0056" style="stop-color:#E7A971"/><stop offset="0.3844" style="stop-color:#EBBB87"/><stop offset="1" style="stop-color:#F2D5A8"/></radialGradient><path d="M34.404,16.334c0,0,5.335-1.295,9.197,5.924C43.602,22.258,40.476,17.629,34.404,16.334z" fill="url(#SVGID_37_)"/><radialGradient cx="40.2622" cy="19.9365" gradientTransform="matrix(0.9951 0 0 1.0013 0.25 -0.0654)" gradientUnits="userSpaceOnUse" id="SVGID_38_" r="17.1139"><stop offset="0.0056" style="stop-color:#E7A971"/><stop offset="0.3844" style="stop-color:#EBBB87"/><stop offset="1" style="stop-color:#F2D5A8"/></radialGradient><path d="M47.466,22.258c0,0-7.726-12.958-15.454-9.627C32.012,12.631,39.088,12.631,47.466,22.258z" fill="url(#SVGID_38_)"/><radialGradient cx="44.2217" cy="21.7144" gradientTransform="matrix(0.9951 0 0 1.0013 0.25 -0.0654)" gradientUnits="userSpaceOnUse" id="SVGID_39_" r="4.0174"><stop offset="0.0056" style="stop-color:#E7A971"/><stop offset="0.3844" style="stop-color:#EBBB87"/><stop offset="1" style="stop-color:#F2D5A8"/></radialGradient><path d="M45.81,22.258c0,0,1.104-1.296-2.39-2.408C39.923,18.74,45.81,22.258,45.81,22.258z" fill="url(#SVGID_39_)"/><radialGradient cx="-4972.6221" cy="20.8999" gradientTransform="matrix(-0.9951 0 0 1.0013 -4892.2622 -0.0654)" gradientUnits="userSpaceOnUse" id="SVGID_40_" r="10.1766"><stop offset="0.0056" style="stop-color:#E7A971"/><stop offset="0.3844" style="stop-color:#EBBB87"/><stop offset="1" style="stop-color:#F2D5A8"/></radialGradient><path d="M60.971,16.334c0,0-5.334-1.295-9.195,5.924C51.775,22.258,54.9,17.629,60.971,16.334z" fill="url(#SVGID_40_)"/><radialGradient cx="-4971.6479" cy="19.9365" gradientTransform="matrix(-0.9951 0 0 1.0013 -4892.2622 -0.0654)" gradientUnits="userSpaceOnUse" id="SVGID_41_" r="17.1128"><stop offset="0.0056" style="stop-color:#E7A971"/><stop offset="0.3844" style="stop-color:#EBBB87"/><stop offset="1" style="stop-color:#F2D5A8"/></radialGradient><path d="M47.911,22.258c0,0,7.726-12.958,15.453-9.627C63.363,12.631,56.289,12.631,47.911,22.258z" fill="url(#SVGID_41_)"/><radialGradient cx="-4967.6875" cy="21.7144" gradientTransform="matrix(-0.9951 0 0 1.0013 -4892.2622 -0.0654)" gradientUnits="userSpaceOnUse" id="SVGID_42_" r="4.0174"><stop offset="0.0056" style="stop-color:#E7A971"/><stop offset="0.3844" style="stop-color:#EBBB87"/><stop offset="1" style="stop-color:#F2D5A8"/></radialGradient><path d="M49.565,22.258c0,0-1.104-1.296,2.392-2.408C55.453,18.74,49.565,22.258,49.565,22.258z" fill="url(#SVGID_42_)"/></g><ellipse cx="58.856" cy="28.151" fill="#FFFFFF" rx="1.265" ry="1.242"/><ellipse cx="36.281" cy="28.893" fill="#FFFFFF" rx="1.264" ry="1.243"/><ellipse cx="37.698" cy="50.112" fill="#E7A971" rx="0.756" ry="2.441"/><ellipse cx="41.93" cy="50.887" fill="#E7A971" rx="0.756" ry="2.441"/><ellipse cx="46.548" cy="51.663" fill="#E7A971" rx="0.755" ry="2.44"/><ellipse cx="44.165" cy="57.629" fill="#E7A971" rx="0.756" ry="2.439"/><ellipse cx="40.08" cy="56.465" fill="#E7A971" rx="0.756" ry="2.441"/><ellipse cx="51.169" cy="50.887" fill="#E7A971" rx="0.757" ry="2.441"/><path d="M56.543,50.112c0,1.349-0.34,2.441-0.754,2.441c-0.42,0-0.758-1.092-0.758-2.441    c0-1.347,0.338-2.439,0.758-2.439C56.203,47.673,56.543,48.765,56.543,50.112z" fill="#E7A971"/><ellipse cx="52.746" cy="56.854" fill="#E7A971" rx="0.756" ry="2.439"/><ellipse cx="48.784" cy="57.629" fill="#E7A971" rx="0.756" ry="2.439"/><ellipse cx="46.463" cy="62.148" fill="#E7A971" rx="0.756" ry="1.617"/></g></g></svg>