<?xml version="1.0" ?><svg enable-background="new 0 0 515.91 728.5" height="512" id="Layer_1" version="1.1" viewBox="0 0 512.00003 512" width="512" xml:space="preserve" xmlns="http://www.w3.org/2000/svg" xmlns:cc="http://creativecommons.org/ns#" xmlns:dc="http://purl.org/dc/elements/1.1/" xmlns:inkscape="http://www.inkscape.org/namespaces/inkscape" xmlns:rdf="http://www.w3.org/1999/02/22-rdf-syntax-ns#" xmlns:sodipodi="http://sodipodi.sourceforge.net/DTD/sodipodi-0.dtd" xmlns:svg="http://www.w3.org/2000/svg"><defs id="defs7"/><g id="g13385" transform="translate(16622.192,-11276.629)"><path d="m -16371.594,11760.719 c -58.661,0.242 -103.689,11.091 -128.5,34.062 -1.379,1.277 -2.724,2.655 -3.906,3.938 -0.676,0.733 -1.215,1.517 -1.781,2.219 l -67.907,0 a 8.0008,8.0008 0 0 0 -6.374,12.812 l 1.406,1.875 c 6.046,7.978 10.715,16.782 14.25,27 l 0.906,2.594 -1.5,2.25 c -7.621,11.449 -14.035,26.694 -16.688,39.875 -2.723,13.541 -2.958,28.665 -0.656,42.031 8.365,48.594 47.995,86.934 96.782,93.594 a 8.0008,8.0008 0 0 0 0.09,0.03 c 31.632,3.923 67.459,-5.022 95.375,-32.156 l 18.375,25.5 a 8.0008,8.0008 0 0 0 13.313,-0.5 l 15.437,-25.375 c 6.329,6.336 14.661,12.886 22.563,17.593 30.549,18.202 68.6,20.952 101.375,7.344 l 0.03,0 c 60.254,-25.05 87.435,-95.512 59.406,-154.187 -3.06,-6.406 -7.674,-14.016 -11.781,-19.469 l 0.437,-1.188 c 4.014,-10.611 9.318,-19.878 12.813,-23.75 l 2.25,-2.5 a 8.0008,8.0008 0 0 0 -5.906,-13.343 l -68.563,-0.313 -3.468,-3.531 c -9.622,-9.756 -20.539,-16.255 -37.094,-22.437 -23.379,-8.738 -52.553,-13.174 -88.782,-13.876 -4.03,-0.08 -7.995,-0.109 -11.906,-0.09 z m 6.375,28.5 c 12.173,0 24.369,0.295 29.375,0.937 19.83,2.544 35.515,7.02 49.25,13.719 -28.065,4.539 -51.678,20.063 -67.875,44.969 -3.688,5.67 -7.562,13.529 -10.687,20.781 -6.808,-16.245 -15.465,-29.39 -27.188,-40.594 -12.879,-12.311 -28.271,-20.478 -45.844,-24.312 -1.679,-0.367 -3.662,-0.519 -5.5,-0.813 13.119,-6.529 29.115,-11.124 49.157,-13.718 4.981,-0.648 17.139,-0.965 29.312,-0.969 z m 102.813,43.875 c 8.069,0 16.148,1.22 23.656,3.656 12.269,3.981 21.266,9.595 30.812,19.25 11.65,11.781 17.731,22.997 21.188,39.094 1.561,7.269 1.535,22.934 0,29.875 -2.39,10.806 -6.222,20.025 -11.312,27.593 -12.399,18.443 -31.475,30.534 -53.313,33.813 -6.36,0.95 -16.321,0.942 -22.625,-0.03 -24.486,-3.779 -46.114,-19.529 -57.219,-41.625 -11.234,-22.355 -11.04,-48.143 0.563,-70.407 8.98,-17.234 25.856,-31.482 44.594,-37.562 7.504,-2.436 15.587,-3.656 23.656,-3.656 z m -207.656,0.09 c 20.722,0 38.102,6.953 52.968,21.187 12.19,11.672 18.933,23.741 22.656,40.625 1.384,6.273 1.565,22.925 0.313,29.188 -6.587,32.933 -32.013,57.232 -64.937,62.187 -10.235,1.539 -22.121,0.74 -32.626,-2.25 -4.972,-1.416 -16.413,-6.73 -20.718,-9.625 -17.514,-11.779 -28.858,-28.622 -33.313,-49.562 -1.348,-6.337 -1.485,-22.479 -0.281,-28.563 3.239,-16.364 9.946,-28.923 21.656,-40.594 15.502,-15.447 32.701,-22.593 54.282,-22.593 z m -0.09,25.781 c -28.198,0 -51.063,22.833 -51.063,51.031 0,28.199 22.865,51.062 51.063,51.062 28.199,0 51.062,-22.863 51.062,-51.062 0,-28.198 -22.863,-51.031 -51.062,-51.031 z m 207.562,0 c -28.198,0 -51.031,22.833 -51.031,51.031 0,28.199 22.833,51.062 51.031,51.062 28.199,0 51.063,-22.863 51.063,-51.062 0,-28.198 -22.864,-51.031 -51.063,-51.031 z m -207.562,15.25 c 19.766,0 35.781,16.016 35.781,35.781 0,19.766 -16.015,35.812 -35.781,35.812 -19.765,0 -35.782,-16.046 -35.782,-35.812 0,-19.765 16.017,-35.781 35.782,-35.781 z m 207.562,0 c 19.766,0 35.813,16.016 35.813,35.781 0,19.766 -16.047,35.812 -35.813,35.812 -19.765,0 -35.781,-16.046 -35.781,-35.812 0,-19.765 16.016,-35.781 35.781,-35.781 z m -207.562,18.625 c -9.488,0 -17.188,7.669 -17.188,17.156 0,9.487 7.7,17.188 17.188,17.188 9.487,0 17.187,-7.701 17.187,-17.188 0,-9.487 -7.7,-17.156 -17.187,-17.156 z m 207.562,0 c -9.487,0 -17.156,7.669 -17.156,17.156 0,9.487 7.669,17.188 17.156,17.188 9.488,0 17.188,-7.701 17.188,-17.188 0,-9.487 -7.7,-17.156 -17.188,-17.156 z" id="path13347" style="font-size:medium;font-style:normal;font-variant:normal;font-weight:normal;font-stretch:normal;text-indent:0;text-align:start;text-decoration:none;line-height:normal;letter-spacing:normal;word-spacing:normal;text-transform:none;direction:ltr;block-progression:tb;writing-mode:lr-tb;text-anchor:start;baseline-shift:baseline;color:#000000;fill:#333333;fill-opacity:1;fill-rule:nonzero;stroke:none;stroke-width:16;marker:none;visibility:visible;display:inline;overflow:visible;enable-background:accumulate;font-family:Sans;-inkscape-font-specification:Sans" transform="translate(0,-448)"/><path d="m -16608.895,11566.426 a 7.7527334,7.7527334 0 0 0 -7.297,7.752 l 0,64.256 a 7.7527334,7.7527334 0 0 0 7.691,7.751 c 152.577,0.713 236.283,103.501 236.283,103.501 a 7.7527334,7.7527334 0 0 0 12.022,0 c 0,0 83.706,-102.79 236.283,-103.501 a 7.7527334,7.7527334 0 0 0 7.721,-7.751 l 0,-64.256 a 7.7527334,7.7527334 0 0 0 -8.115,-7.752 c 0,0 -43.786,1.924 -96.383,14.535 -49.868,11.952 -108.158,33.318 -145.502,73.34 -37.338,-40.04 -95.651,-61.387 -145.531,-73.34 -52.6,-12.608 -96.384,-14.535 -96.384,-14.535 a 7.7527334,7.7527334 0 0 0 -0.788,0 z" id="path11672-9" style="font-size:medium;font-style:normal;font-variant:normal;font-weight:normal;font-stretch:normal;text-indent:0;text-align:start;text-decoration:none;line-height:normal;letter-spacing:normal;word-spacing:normal;text-transform:none;direction:ltr;block-progression:tb;writing-mode:lr-tb;text-anchor:start;baseline-shift:baseline;color:#000000;fill:#00a1f1;fill-opacity:1;fill-rule:nonzero;stroke:none;stroke-width:16;marker:none;visibility:visible;display:inline;overflow:visible;enable-background:accumulate;font-family:Sans;-inkscape-font-specification:Sans"/></g></svg>